# xmcd
#
# Track frame offsets: 
#        150
#        14846
#        26419
#        40115
#        54022
#        66129
#        78931
#        92494
#        105430
#        118478
#        131961
#        145484
#        159617
#        173585
#        187473
#        201041
#        213963
#        227195
#
# Disc length: 3217 seconds
#
# Revision: 1
# Processed by: cddbd v1.5.2PL0 Copyright (c) Steve Scherf et al.
# Submitted via: ExactAudioCopy v0.95b2
#
DISCID=fe0c8f12
DTITLE=Josh White - The Essential Josh White Disc 1
DYEAR=1900
DGENRE=Blues
TTITLE0=Black and Evil Blues
TTITLE1=Gone Mother Blues
TTITLE2=Little Brother Blues
TTITLE3=Good Gal
TTITLE4=Barbecue Blues (w.Lucille Bogan)
TTITLE5=School Boy Blues (w.Walter Roland)
TTITLE6=Baby, Won't you Doodle Doo Doo
TTITLE7=Double Crossin' Woman
TTITLE8=I Believe I'll Make a Change
TTITLE9=Good Woman Blues (w. Leroy Carr)
TTITLE10=High Brown Cheater
TTITLE11=Oh Lordy Mama No. 2 (w.Buddy Moss)
TTITLE12=D.B.A. Blues
TTITLE13=Crying Blues
TTITLE14=Wang Wang Harmonica Blues (w.CarverBoys)
TTITLE15=Friendless City Blues
TTITLE16=Black Gal Blues
TTITLE17=You Got to Give Me Some of It (w.Buddy Moss)
EXTD=Disc 1 of Classic Blues 2 CD Set
EXTT0=
EXTT1=
EXTT2=
EXTT3=
EXTT4=
EXTT5=
EXTT6=
EXTT7=
EXTT8=
EXTT9=
EXTT10=
EXTT11=
EXTT12=
EXTT13=
EXTT14=
EXTT15=
EXTT16=
EXTT17=
PLAYORDER=
